<?xml version="1.0" encoding="UTF-8"?>
<svg id="Layer_1" xmlns="http://www.w3.org/2000/svg" version="1.1" viewBox="0 0 544.73 101.94">
  <!-- Generator: Adobe Illustrator 30.3.0, SVG Export Plug-In . SVG Version: 2.1.3 Build 182)  -->
  <defs>
    <style>
      .st0 {
        fill: #f8a020;
      }

      .st1 {
        fill: #0d1d36;
      }
    </style>
  </defs>
  <path class="st1" d="M80.8,10.7l19.95.03L36.24,85.44l-19.66-49.6-7.9-20.26-1.3-3.46c-.21-.55-.66-.61-.38-1.49l18.58.11c1.85.01,2.43,1.95,3,3.42l15.3,39.67,9.03-10.67,27.88-32.47Z"/>
  <path class="st1" d="M92.94,63.92c-.55,2.11,1.02,4.31,3.35,4.32l34.88.09-3.23,10.42h-38.15c-3.64-.21-7.01-1.21-9.31-4.09-1.75-2.2-2.46-5.64-1.65-8.55l5.74-20.78c2.74-7.34,8.98-12.49,17-12.86l25.56-.12c4.48-.02,9.61,1.85,11.07,6.09.68,2.45.73,4.99-.02,7.45l-4.33,14.26-39.94.03-.97,3.74ZM123.49,50.73l1.21-4.18c.54-1.88-.81-3.92-2.96-3.92l-18.1-.05c-2.85,0-5.28,1.84-5.93,4.49l-.91,3.74,26.68-.07Z"/>
  <path class="st1" d="M201.77,78.72l-27.61-.03c-4.18,0-8.33-2.13-10.06-5.92-1.44-3.15-.8-6.69.13-9.85l4.79-16.27c2.36-8.02,9.45-14.17,18.07-14.18l27.92-.04c3.06,0,6.13,1.13,8.36,3.04,2.86,2.47,3.79,6.46,2.77,10.08l-4.91,17.47c-2.51,8.94-9.79,15.71-19.47,15.7ZM207.16,64.09l4.82-16.41c.35-1.2.07-2.44-.51-3.33-.55-.85-1.57-1.51-2.69-1.49l-6.49.14-11.86-.25c-3.84-.08-7.03,1.4-8.12,5.32l-4.45,15.99c-.63,2.26,1.27,4.2,3.48,4.2l19.89.03c2.55,0,5.14-1.52,5.93-4.2Z"/>
  <path class="st1" d="M203.17,93.83l2.83-2.96c1-.27,1.48-1.06,2.19-1.7s1.71-.89,2.17-1.87c.08-.18.19-.57.32-.66.12-.08.45-.01.75,0l44.17-36.56,21.82-17.73,17.45.1-29.83,24.88-18.1,15.38-1.73,1.54-23.33,19.62-18.72-.04Z"/>
  <path class="st1" d="M156.08,61.07l-5.11,17.62-13.81.04,9.63-33.57,8.76-30.66h13.53s-12.52,44.74-12.52,44.74c.14.73-.28,1.1-.49,1.84Z"/>
  <polygon class="st0" points="300.09 93.81 277.22 93.88 272.26 86.97 257.95 67.56 269 58.24 283.39 74.45 300.09 93.81"/>
  <polygon class="st1" points="257.8 44.34 247.38 52.81 232.37 32.46 248.55 32.33 257.8 44.34"/>
  <path class="st0" d="M465.42,88.75l-2.88,5.16-45.81-.03,2.8-5.15,7.77-.19,2.22.07,20.27.05c1.08,0,2.12-.36,3.19.06l12.44.04Z"/>
  <polygon class="st0" points="519.59 93.89 473.69 93.92 476.44 88.69 522.36 88.71 519.59 93.89"/>
  <polygon class="st0" points="405.64 93.89 360 93.91 362.71 88.67 408.48 88.66 405.64 93.89"/>
  <path class="st0" d="M348.65,93.89h-44.97c-.14-1.3.46-2.06,1.05-2.97.31-.49.37-1.82,1.08-2.2l45.72-.04-2.87,5.22Z"/>
  <g>
    <path class="st1" d="M490.3,64.27c-.28,1.84,1,3.92,3.03,3.93l35.44.15-3.36,10.36h-38.88c-6.08-.01-11.43-4.74-10.55-11.55l2.73-10.12,3.49-12c2.59-7.16,8.99-12.15,16.79-12.56l25.57-.15c5.22-.03,10.7,2.69,11.5,6.94.62,3.31-.06,6.42-1.24,9.43l-.94,3.7-2.58,7.75-39.88-.02c-.57,1.26-.88,2.39-1.15,4.13ZM521.02,50.67l1.21-4.03c.57-1.88-.85-4.03-3.03-4.03h-18.45c-2.63.01-4.91,1.78-5.5,4.16l-1,4,26.77-.1Z"/>
    <path class="st1" d="M354.73,73.39c-1.41-5.65,1.3-14.74,5.92-18.56,2.98-2.46,7.12-3.85,11.2-3.87l22.75-.11,3.75-.02c.86-1.88,1.63-4.24.7-6.25-.5-1.08-2.37-1.66-3.6-1.66l-32.42-.1,1.46-5.02c.54-1.86.79-3.68,1.87-5.3l34.98.16c6.22.03,12.22,3.17,12.26,9.65.18,2.61-.58,4.89-1.33,7.38l-8.76,29.04h-39.13c-4.15,0-7.73-1.76-9.64-5.34ZM393,68.84l2.48-8.35-22.57-.02c-2.75.27-4.54,2.26-4.7,4.99-.05.92-.08,1.81.55,2.47.48.51,1.32.79,2.25.95l21.99-.04Z"/>
    <path class="st1" d="M460.8,47.43c.69-2.29-1.04-4.36-3.22-4.36l-22.1-.06-3.6,12.46-2.69,8.92c-.88,1.45-1.1,3.07-1.45,4.68l-3.03,9.57-13.46.03,12.8-42.89c.31-1.05.24-2.43,1.25-3.14l37.26.08c2.68,0,5.15.74,7.42,1.84,4.73,2.29,5.79,7.59,4.29,12.62l-9.42,31.5h-13.36s2.55-8.72,2.55-8.72l6.76-22.54Z"/>
    <path class="st1" d="M349.42,67.38l-3.33,11.3h-51.87c-1.33-.01-2.33-.53-2.91-1.35s-.9-2.05-.53-3.28l14.92-49.46,3.78-12.26h14.48s-13.81,46.92-13.81,46.92l-2.2,8.08,41.46.03Z"/>
  </g>
</svg>